<svg xmlns="http://www.w3.org/2000/svg" width="149.699" height="27.604" viewBox="0 0 149.699 27.604">
  <g id="Group_3" data-name="Group 3" transform="translate(-13.301 -16)">
    <g id="Group_2" data-name="Group 2">
      <text id="Neighbour_" data-name="Neighbour " transform="translate(59 16)" fill="#282e29" font-size="20" font-family="SegoeUI-Bold, Segoe UI" font-weight="700"><tspan x="0" y="22">Neighbour </tspan></text>
      <path id="Path_69" data-name="Path 69" d="M37.386,22.974,28.259,46.069Q27.4,48.487,25.3,48.487q-2.837,0-3.364-2.455L18.912,31.721,14.821,43.832a5.6,5.6,0,0,1-2.437,3.019,6.85,6.85,0,0,1-3.746,1.073H0A15.708,15.708,0,0,1,1.364,45.1a3.043,3.043,0,0,1,2.51-1.582,14.233,14.233,0,0,1,2.646.373,14.27,14.27,0,0,0,2.682.373q1.909,0,2.71-2.346l5.6-16.239a9.561,9.561,0,0,1,1.218-2.71,3.208,3.208,0,0,1,2.691-1.091q2.746,0,3.528,3.873l2.491,12.438L33.455,24.01C34.849,20.107,38.3,23.774,37.386,22.974Z" transform="translate(13.301 -4.883)" fill="#2c783b"/>
    </g>
  </g>
</svg>
